<svg width="13" height="16" viewBox="0 0 13 16" fill="none" xmlns="http://www.w3.org/2000/svg">
<path d="M10.3508 8.93977C9.82681 10.0015 9.11752 11.0601 8.39081 12.01C7.66638 12.957 6.93948 13.7768 6.39274 14.3605C6.32009 14.438 6.25072 14.5113 6.18506 14.5801C6.1194 14.5113 6.05003 14.438 5.97738 14.3605C5.43064 13.7768 4.70374 12.957 3.9793 12.01C3.2526 11.0601 2.54331 10.0015 2.01929 8.93977C1.48986 7.86708 1.18506 6.86191 1.18506 6C1.18506 3.23858 3.42363 1 6.18506 1C8.94648 1 11.1851 3.23858 11.1851 6C11.1851 6.86191 10.8803 7.86708 10.3508 8.93977ZM6.18506 16C6.18506 16 12.1851 10.3137 12.1851 6C12.1851 2.68629 9.49877 0 6.18506 0C2.87135 0 0.185059 2.68629 0.185059 6C0.185059 10.3137 6.18506 16 6.18506 16Z" fill="#343A40"/>
<path d="M6.18506 8C5.08049 8 4.18506 7.10457 4.18506 6C4.18506 4.89543 5.08049 4 6.18506 4C7.28963 4 8.18506 4.89543 8.18506 6C8.18506 7.10457 7.28963 8 6.18506 8ZM6.18506 9C7.84191 9 9.18506 7.65685 9.18506 6C9.18506 4.34315 7.84191 3 6.18506 3C4.5282 3 3.18506 4.34315 3.18506 6C3.18506 7.65685 4.5282 9 6.18506 9Z" fill="#343A40"/>
</svg>
