<svg width="17" height="18" viewBox="0 0 17 18" fill="none" xmlns="http://www.w3.org/2000/svg">
<path d="M16.4935 5.6912C16.4845 5.01254 16.3572 4.34062 16.1175 3.70551C15.9095 3.1698 15.592 2.68328 15.1851 2.27703C14.7781 1.87078 14.2908 1.55374 13.7542 1.34616C13.1262 1.11082 12.4628 0.983563 11.7921 0.969816C10.9287 0.931285 10.6549 0.920532 8.46306 0.920532C6.27122 0.920532 5.99028 0.920532 5.13311 0.969816C4.46278 0.983664 3.79965 1.11092 3.17194 1.34616C2.63525 1.55359 2.14785 1.87058 1.7409 2.27685C1.33396 2.68312 1.01644 3.16972 0.808666 3.70551C0.572455 4.33198 0.445264 4.99416 0.432588 5.66342C0.393993 6.52633 0.382324 6.79964 0.382324 8.98783C0.382324 11.176 0.382324 11.4556 0.432588 12.3122C0.446051 12.9825 0.572607 13.6438 0.808666 14.2719C1.01679 14.8076 1.33454 15.294 1.74162 15.7001C2.1487 16.1062 2.63616 16.423 3.17284 16.6304C3.79883 16.8752 4.46207 17.0116 5.13401 17.0336C5.99836 17.0722 6.27212 17.0838 8.46396 17.0838C10.6558 17.0838 10.9367 17.0838 11.7939 17.0336C12.4645 17.0204 13.128 16.8935 13.756 16.6582C14.2924 16.4504 14.7797 16.1332 15.1866 15.727C15.5934 15.3208 15.9111 14.8344 16.1193 14.2988C16.3553 13.6716 16.4819 13.0103 16.4953 12.3391C16.5339 11.4771 16.5456 11.2038 16.5456 9.01472C16.5438 6.82652 16.5438 6.54874 16.4935 5.6912ZM8.45768 13.1259C6.16531 13.1259 4.30826 11.2719 4.30826 8.98335C4.30826 6.6948 6.16531 4.84083 8.45768 4.84083C9.55818 4.84083 10.6136 5.27727 11.3918 6.05415C12.1699 6.83102 12.6071 7.88469 12.6071 8.98335C12.6071 10.082 12.1699 11.1357 11.3918 11.9126C10.6136 12.6894 9.55818 13.1259 8.45768 13.1259ZM12.7723 5.65356C12.6452 5.65368 12.5193 5.62878 12.4018 5.58028C12.2844 5.53177 12.1777 5.46062 12.0878 5.3709C11.9979 5.28118 11.9267 5.17465 11.8781 5.0574C11.8295 4.94015 11.8046 4.81449 11.8047 4.6876C11.8047 4.56081 11.8297 4.43526 11.8783 4.31812C11.9269 4.20098 11.9981 4.09454 12.0879 4.00488C12.1778 3.91523 12.2844 3.84411 12.4017 3.79558C12.519 3.74706 12.6448 3.72209 12.7718 3.72209C12.8988 3.72209 13.0246 3.74706 13.1419 3.79558C13.2592 3.84411 13.3659 3.91523 13.4557 4.00488C13.5455 4.09454 13.6167 4.20098 13.6653 4.31812C13.7139 4.43526 13.7389 4.56081 13.7389 4.6876C13.7389 5.22166 13.3063 5.65356 12.7723 5.65356Z" fill="white"/>
<path d="M8.45802 11.6742C9.94663 11.6742 11.1534 10.4695 11.1534 8.98335C11.1534 7.49721 9.94663 6.29246 8.45802 6.29246C6.9694 6.29246 5.76264 7.49721 5.76264 8.98335C5.76264 10.4695 6.9694 11.6742 8.45802 11.6742Z" fill="white"/>
</svg>
