<svg width="13" height="16" viewBox="0 0 13 16" fill="none" xmlns="http://www.w3.org/2000/svg">
<path d="M10.351 8.93977C9.82693 10.0015 9.11764 11.0601 8.39093 12.01C7.6665 12.957 6.9396 13.7768 6.39286 14.3605C6.32021 14.438 6.25084 14.5113 6.18518 14.5801C6.11952 14.5113 6.05015 14.438 5.9775 14.3605C5.43076 13.7768 4.70386 12.957 3.97943 12.01C3.25272 11.0601 2.54343 10.0015 2.01941 8.93977C1.48998 7.86708 1.18518 6.86191 1.18518 6C1.18518 3.23858 3.42376 1 6.18518 1C8.9466 1 11.1852 3.23858 11.1852 6C11.1852 6.86191 10.8804 7.86708 10.351 8.93977ZM6.18518 16C6.18518 16 12.1852 10.3137 12.1852 6C12.1852 2.68629 9.49889 0 6.18518 0C2.87147 0 0.185181 2.68629 0.185181 6C0.185181 10.3137 6.18518 16 6.18518 16Z" fill="white"/>
<path d="M6.18518 8C5.08061 8 4.18518 7.10457 4.18518 6C4.18518 4.89543 5.08061 4 6.18518 4C7.28975 4 8.18518 4.89543 8.18518 6C8.18518 7.10457 7.28975 8 6.18518 8ZM6.18518 9C7.84203 9 9.18518 7.65685 9.18518 6C9.18518 4.34315 7.84203 3 6.18518 3C4.52833 3 3.18518 4.34315 3.18518 6C3.18518 7.65685 4.52833 9 6.18518 9Z" fill="white"/>
</svg>
