<svg width="18" height="18" viewBox="0 0 18 18" fill="none" xmlns="http://www.w3.org/2000/svg">
<path fill-rule="evenodd" clip-rule="evenodd" d="M14.8764 3.26974C14.1224 2.52286 13.2253 1.93064 12.237 1.52739C11.2487 1.12414 10.189 0.917882 9.11916 0.920558C4.63305 0.920558 0.981067 4.51348 0.979254 8.92991C0.979254 10.3414 1.3537 11.719 2.06542 12.9341L0.911255 17.0838L5.226 15.9694C6.41951 16.6088 7.75664 16.944 9.11553 16.9446H9.11916C13.6044 16.9446 17.2563 13.3517 17.2582 8.93527C17.2612 7.88289 17.0523 6.84035 16.6435 5.86791C16.2347 4.89546 15.6341 4.01239 14.8764 3.26974ZM9.11916 15.5929H9.11644C7.90472 15.5931 6.7153 15.2722 5.67298 14.6641L5.42637 14.5196L2.86599 15.1807L3.5487 12.7245L3.38822 12.4729C2.71076 11.4115 2.35213 10.1833 2.35374 8.92991C2.35555 5.25937 5.39011 2.27315 9.12188 2.27315C10.0106 2.2712 10.8909 2.44274 11.7119 2.77782C12.5328 3.11291 13.278 3.60489 13.9045 4.2253C14.5342 4.84274 15.0334 5.5769 15.3731 6.38533C15.7128 7.19377 15.8864 8.06044 15.8837 8.93527C15.8819 12.6058 12.8473 15.5929 9.11916 15.5929ZM12.8301 10.6064C12.6261 10.5056 11.627 10.022 11.4402 9.95506C11.2543 9.88815 11.1192 9.85513 10.9832 10.055C10.8472 10.2548 10.4574 10.7054 10.3386 10.8392C10.2198 10.9731 10.1011 10.9891 9.89797 10.8892C9.69488 10.7893 9.03937 10.5778 8.26237 9.89618C7.65764 9.36531 7.24965 8.71043 7.13087 8.50968C7.0121 8.30894 7.11818 8.20098 7.22063 8.10105C7.3122 8.01183 7.42372 7.86729 7.52527 7.75041C7.62681 7.63353 7.66036 7.55056 7.72836 7.41673C7.79636 7.2829 7.76281 7.16602 7.71113 7.06609C7.66036 6.96527 7.25327 5.98027 7.08373 5.57967C6.91962 5.19156 6.75189 5.24331 6.62678 5.23796C6.4972 5.23274 6.36751 5.23036 6.23782 5.23082C6.1347 5.2334 6.03323 5.25693 5.93977 5.29992C5.84632 5.34291 5.7629 5.40443 5.69474 5.48064C5.50797 5.68138 4.98302 6.16496 4.98302 7.14996C4.98302 8.13496 5.71197 9.08694 5.81351 9.22077C5.91506 9.35461 7.24783 11.3755 9.2878 12.2427C9.77376 12.4488 10.1527 12.5719 10.4474 12.6647C10.9343 12.8173 11.3776 12.795 11.7285 12.7441C12.1193 12.687 12.9316 12.2605 13.1012 11.793C13.2707 11.3255 13.2707 10.9249 13.2199 10.841C13.1692 10.7572 13.0323 10.7063 12.8301 10.6064Z" fill="white"/>
</svg>
