<svg width="20" height="20" viewBox="0 0 20 20" fill="none" xmlns="http://www.w3.org/2000/svg">
<path d="M5.65387 3.32849C5.40343 3.00649 4.92745 2.97686 4.639 3.26531L3.60508 4.29923C3.1216 4.78271 2.94387 5.46766 3.1551 6.06847C4.00338 8.48124 5.39215 10.7467 7.32272 12.6773C9.25329 14.6078 11.5188 15.9966 13.9315 16.8449C14.5323 17.0561 15.2173 16.8784 15.7008 16.3949L16.7347 15.361C17.0231 15.0726 16.9935 14.5966 16.6715 14.3461L14.3653 12.5524C14.2008 12.4245 13.9866 12.3793 13.7845 12.4298L11.5954 12.9771C11.0008 13.1257 10.3718 12.9515 9.93845 12.5181L7.48187 10.0616C7.04849 9.62817 6.87427 8.99919 7.02292 8.40459L7.57019 6.21553C7.62073 6.01336 7.57552 5.79918 7.44758 5.63468L5.65387 3.32849ZM3.88477 2.51108C4.62689 1.76896 5.8515 1.8452 6.49583 2.67363L8.28954 4.97983C8.6187 5.40304 8.73502 5.95409 8.60498 6.47423L8.05772 8.66329C7.99994 8.8944 8.06766 9.13888 8.2361 9.30732L10.6927 11.7639C10.8611 11.9323 11.1056 12.0001 11.3367 11.9423L13.5258 11.395C14.0459 11.265 14.597 11.3813 15.0202 11.7105L17.3264 13.5042C18.1548 14.1485 18.231 15.3731 17.4889 16.1152L16.455 17.1492C15.7153 17.8889 14.6089 18.2137 13.5778 17.8512C11.0175 16.9511 8.61438 15.4774 6.56849 13.4315C4.5226 11.3856 3.04895 8.98246 2.14884 6.42225C1.78632 5.39112 2.11113 4.28472 2.85085 3.545L3.88477 2.51108Z" fill="#343A40"/>
</svg>
