<svg width="14" height="16" viewBox="0 0 14 16" fill="none" xmlns="http://www.w3.org/2000/svg">
<path d="M12 16C12 16 13.3333 16 13.3333 14.6667C13.3333 13.3333 12 9.33333 6.66667 9.33333C1.33333 9.33333 0 13.3333 0 14.6667C0 16 1.33333 16 1.33333 16H12ZM1.36267 14.6667C1.35282 14.6653 1.34303 14.6635 1.33333 14.6613C1.33467 14.3093 1.556 13.288 2.34667 12.368C3.08267 11.5053 4.376 10.6667 6.66667 10.6667C8.956 10.6667 10.2493 11.5067 10.9867 12.368C11.7773 13.288 11.9973 14.3107 12 14.6613L11.9893 14.664C11.9831 14.6651 11.9769 14.6659 11.9707 14.6667H1.36267ZM6.66667 6.66667C7.37391 6.66667 8.05219 6.38572 8.55228 5.88562C9.05238 5.38552 9.33333 4.70724 9.33333 4C9.33333 3.29276 9.05238 2.61448 8.55228 2.11438C8.05219 1.61428 7.37391 1.33333 6.66667 1.33333C5.95942 1.33333 5.28115 1.61428 4.78105 2.11438C4.28095 2.61448 4 3.29276 4 4C4 4.70724 4.28095 5.38552 4.78105 5.88562C5.28115 6.38572 5.95942 6.66667 6.66667 6.66667ZM10.6667 4C10.6667 4.52529 10.5632 5.04543 10.3622 5.53073C10.1612 6.01604 9.86653 6.45699 9.49509 6.82843C9.12366 7.19986 8.6827 7.4945 8.1974 7.69552C7.7121 7.89654 7.19195 8 6.66667 8C6.14138 8 5.62124 7.89654 5.13593 7.69552C4.65063 7.4945 4.20967 7.19986 3.83824 6.82843C3.4668 6.45699 3.17217 6.01604 2.97115 5.53073C2.77013 5.04543 2.66667 4.52529 2.66667 4C2.66667 2.93913 3.08809 1.92172 3.83824 1.17157C4.58838 0.421427 5.6058 0 6.66667 0C7.72753 0 8.74495 0.421427 9.49509 1.17157C10.2452 1.92172 10.6667 2.93913 10.6667 4Z" fill="#343A40"/>
</svg>
