<svg width="18" height="12" viewBox="0 0 18 12" fill="none" xmlns="http://www.w3.org/2000/svg">
<path d="M17.5873 1.3934C17.7131 0.977199 17.5873 0.671982 16.9926 0.671982H15.0227C14.5215 0.671982 14.2924 0.936026 14.1667 1.22603C14.1667 1.22603 13.1651 3.65971 11.7458 5.23771C11.2877 5.69688 11.0784 5.84188 10.8287 5.84188C10.7038 5.84188 10.5224 5.69688 10.5224 5.28067V1.3934C10.5224 0.893958 10.3778 0.671982 9.96005 0.671982H6.8646C6.55201 0.671982 6.36337 0.902909 6.36337 1.12309C6.36337 1.59569 7.073 1.70489 7.14576 3.03674V5.92601C7.14576 6.55883 7.03168 6.67429 6.78017 6.67429C6.11275 6.67429 4.48867 4.23166 3.52482 1.43547C3.33709 0.892168 3.14755 0.672877 2.64452 0.672877H0.675502C0.112284 0.672877 0 0.936921 0 1.22692C0 1.74785 0.667417 4.32564 3.10892 7.73494C4.7366 10.063 7.02809 11.325 9.11568 11.325C10.367 11.325 10.5215 11.0449 10.5215 10.5616V8.80186C10.5215 8.24155 10.6409 8.12877 11.0371 8.12877C11.3281 8.12877 11.8294 8.27556 12.998 9.39708C14.3328 10.7271 14.5538 11.3242 15.3039 11.3242H17.2729C17.8352 11.3242 18.1164 11.044 17.9547 10.4908C17.7777 9.94038 17.14 9.1393 16.2938 8.19142C15.8339 7.65081 15.1467 7.06901 14.9374 6.77812C14.6454 6.40309 14.7299 6.2375 14.9374 5.90453C14.9383 5.90543 17.3376 2.53819 17.5873 1.3934Z" fill="white"/>
</svg>
