<svg width="17" height="15" viewBox="0 0 17 15" fill="none" xmlns="http://www.w3.org/2000/svg">
<path d="M2.86603 14.3508C2.78823 14.7942 3.2258 15.1413 3.61224 14.9427L8.00146 12.6868L12.3907 14.9427C12.7771 15.1413 13.2147 14.7942 13.1369 14.3508L12.3072 9.62126L15.8295 6.26462C16.1587 5.95092 15.9883 5.37737 15.5473 5.31472L10.6488 4.61885L8.4647 0.292305C8.26795 -0.097435 7.73498 -0.097435 7.53823 0.292305L5.35411 4.61885L0.455637 5.31472C0.0146475 5.37737 -0.155753 5.95092 0.173428 6.26462L3.69576 9.62126L2.86603 14.3508ZM7.77063 11.5826L4.08488 13.477L4.77914 9.51971C4.81187 9.33316 4.75033 9.14214 4.61639 9.0145L1.70955 6.2444L5.76186 5.66873C5.92938 5.64494 6.07565 5.53795 6.15467 5.38141L8.00146 1.72308L9.84826 5.38141C9.92728 5.53795 10.0736 5.64494 10.2411 5.66873L14.2934 6.2444L11.3865 9.0145C11.2526 9.14214 11.1911 9.33316 11.2238 9.51971L11.918 13.477L8.23229 11.5826C8.0867 11.5078 7.91623 11.5078 7.77063 11.5826Z" fill="#40AE2A"/>
</svg>
