<svg width="14" height="17" viewBox="0 0 14 17" fill="none" xmlns="http://www.w3.org/2000/svg">
<path d="M12 16.5C12 16.5 13.3333 16.5 13.3333 15.1667C13.3333 13.8333 12 9.83333 6.66667 9.83333C1.33333 9.83333 0 13.8333 0 15.1667C0 16.5 1.33333 16.5 1.33333 16.5H12ZM1.36267 15.1667C1.35282 15.1653 1.34303 15.1635 1.33333 15.1613C1.33467 14.8093 1.556 13.788 2.34667 12.868C3.08267 12.0053 4.376 11.1667 6.66667 11.1667C8.956 11.1667 10.2493 12.0067 10.9867 12.868C11.7773 13.788 11.9973 14.8107 12 15.1613L11.9893 15.164C11.9831 15.1651 11.9769 15.1659 11.9707 15.1667H1.36267ZM6.66667 7.16667C7.37391 7.16667 8.05219 6.88572 8.55228 6.38562C9.05238 5.88552 9.33333 5.20724 9.33333 4.5C9.33333 3.79276 9.05238 3.11448 8.55228 2.61438C8.05219 2.11428 7.37391 1.83333 6.66667 1.83333C5.95942 1.83333 5.28115 2.11428 4.78105 2.61438C4.28095 3.11448 4 3.79276 4 4.5C4 5.20724 4.28095 5.88552 4.78105 6.38562C5.28115 6.88572 5.95942 7.16667 6.66667 7.16667ZM10.6667 4.5C10.6667 5.02529 10.5632 5.54543 10.3622 6.03073C10.1612 6.51604 9.86653 6.95699 9.49509 7.32843C9.12366 7.69986 8.6827 7.9945 8.1974 8.19552C7.7121 8.39654 7.19195 8.5 6.66667 8.5C6.14138 8.5 5.62124 8.39654 5.13593 8.19552C4.65063 7.9945 4.20967 7.69986 3.83824 7.32843C3.4668 6.95699 3.17217 6.51604 2.97115 6.03073C2.77013 5.54543 2.66667 5.02529 2.66667 4.5C2.66667 3.43913 3.08809 2.42172 3.83824 1.67157C4.58838 0.921427 5.6058 0.5 6.66667 0.5C7.72753 0.5 8.74495 0.921427 9.49509 1.67157C10.2452 2.42172 10.6667 3.43913 10.6667 4.5Z" fill="white"/>
</svg>
