<svg width="16" height="17" viewBox="0 0 16 17" fill="none" xmlns="http://www.w3.org/2000/svg">
<path d="M0.5 0.5C0.776142 0.5 1 0.723858 1 1V16C1 16.2761 0.776142 16.5 0.5 16.5C0.223858 16.5 0 16.2761 0 16V1C0 0.723858 0.223858 0.5 0.5 0.5Z" fill="#40AE2A"/>
<path d="M2 2C2 1.72386 2.22386 1.5 2.5 1.5H6.5C6.77614 1.5 7 1.72386 7 2V3C7 3.27614 6.77614 3.5 6.5 3.5H2.5C2.22386 3.5 2 3.27614 2 3V2Z" fill="#40AE2A"/>
<path d="M4 6C4 5.72386 4.22386 5.5 4.5 5.5H11.5C11.7761 5.5 12 5.72386 12 6V7C12 7.27614 11.7761 7.5 11.5 7.5H4.5C4.22386 7.5 4 7.27614 4 7V6Z" fill="#40AE2A"/>
<path d="M6 10C6 9.72386 6.22386 9.5 6.5 9.5H12.5C12.7761 9.5 13 9.72386 13 10V11C13 11.2761 12.7761 11.5 12.5 11.5H6.5C6.22386 11.5 6 11.2761 6 11V10Z" fill="#40AE2A"/>
<path d="M8 14C8 13.7239 8.22386 13.5 8.5 13.5H15.5C15.7761 13.5 16 13.7239 16 14V15C16 15.2761 15.7761 15.5 15.5 15.5H8.5C8.22386 15.5 8 15.2761 8 15V14Z" fill="#40AE2A"/>
</svg>
