<svg width="17" height="18" viewBox="0 0 17 18" fill="none" xmlns="http://www.w3.org/2000/svg">
<path d="M15.8485 4.22222C14.9452 4.02488 14.128 3.54832 13.5142 2.86093C12.9005 2.17354 12.5216 1.31066 12.4322 0.396115V0H9.30576V12.3066C9.3064 12.8526 9.13407 13.385 8.81319 13.8284C8.49231 14.2718 8.03914 14.6036 7.51789 14.7769C6.99663 14.9501 6.4337 14.9561 5.90885 14.7939C5.38399 14.6316 4.92382 14.3095 4.59352 13.873C4.29759 13.4867 4.11639 13.0258 4.07039 12.5424C4.0244 12.0591 4.11544 11.5726 4.33324 11.138C4.55103 10.7034 4.88688 10.338 5.30281 10.0831C5.71874 9.82828 6.19816 9.69411 6.68684 9.6958C6.95711 9.69427 7.22603 9.73373 7.4843 9.81284V6.66193C7.18374 6.62495 6.88087 6.60991 6.5781 6.61691C5.46284 6.64652 4.38049 6.99857 3.46356 7.62995C2.54663 8.26133 1.83494 9.14464 1.41563 10.1717C0.996315 11.1988 0.887585 12.3251 1.10275 13.4126C1.31792 14.5001 1.84764 15.5017 2.62706 16.2947C3.42586 17.1015 4.44806 17.6542 5.56378 17.8826C6.6795 18.1109 7.83836 18.0047 8.89313 17.5772C9.9479 17.1498 10.851 16.4205 11.4876 15.482C12.1242 14.5435 12.4656 13.4382 12.4684 12.3066V6.00474C13.7294 6.89955 15.2414 7.37822 16.791 7.37313V4.31225C16.4866 4.31349 16.1829 4.28332 15.8848 4.22222H15.8485Z" fill="white"/>
</svg>
