<svg width="27" height="20" viewBox="0 0 27 20" fill="none" xmlns="http://www.w3.org/2000/svg">
<path d="M1.8543 0C0.8302 0 0 0.895431 0 2C0 3.10457 0.8302 4 1.8543 4H24.8124C25.8365 4 26.6667 3.10457 26.6667 2C26.6667 0.89543 25.8365 0 24.8124 0H1.8543Z" fill="white"/>
<path d="M1.8543 8C0.8302 8 0 8.89543 0 10C0 11.1046 0.8302 12 1.8543 12H24.8124C25.8365 12 26.6667 11.1046 26.6667 10C26.6667 8.89543 25.8365 8 24.8124 8H1.8543Z" fill="white"/>
<path d="M1.8543 16C0.8302 16 0 16.8954 0 18C0 19.1046 0.8302 20 1.8543 20H24.8124C25.8365 20 26.6667 19.1046 26.6667 18C26.6667 16.8954 25.8365 16 24.8124 16H1.8543Z" fill="white"/>
</svg>
